Coordinates
version=1
nRows=27
nColumns=12
inDegrees=yes

Units are S.I. units (second, meters, Newtons, ...)
Angles are in degrees

endheader
time	SC_y	SC_z	SC_x	AC_y	AC_z	AC_x	GH_y	GH_z	GH_yy	EL_x	PS_y
       0.0              -27.43          28.66          28.34          66.19         -15.27          18.92         -161.7          27.89         -121.0          47.66          82.15
   0.04468              -27.43          28.66          28.34          66.19         -15.27          18.92         -161.6          27.89         -120.9          47.66          82.15
   0.08936              -27.43          28.65          28.35          66.19         -15.26          18.92         -161.6          27.89         -120.9          47.67          82.16
     0.134              -27.43          28.65          28.35          66.19         -15.26          18.92         -161.5          27.89         -120.9          47.68          82.17
    0.1787              -27.43          28.65          28.36          66.19         -15.26          18.92         -161.5          27.89         -120.8          47.69          82.18
    0.2234              -27.43          28.64          28.36          66.19         -15.25          18.92         -161.4          27.88         -120.8           47.7          82.19
    0.2681              -27.43          28.64          28.37          66.19         -15.25          18.92         -161.4          27.88         -120.8          47.71           82.2
    0.3128              -27.43          28.63          28.37          66.19         -15.25          18.92         -161.3          27.88         -120.7          47.72          82.21
    0.3574              -27.43          28.63          28.38          66.19         -15.24          18.92         -161.3          27.88         -120.7          47.73          82.23
    0.4021              -27.43          28.62          28.39          66.19         -15.24          18.92         -161.2          27.87         -120.6          47.74          82.24
    0.4468              -27.43          28.62          28.39          66.19         -15.23          18.92         -161.1          27.87         -120.6          47.75          82.25
    0.4915              -27.43          28.61           28.4          66.19         -15.22          18.92         -161.1          27.87         -120.5          47.77          82.27
    0.5362              -27.43           28.6          28.41          66.19         -15.22          18.92         -161.0          27.86         -120.5          47.78          82.29
    0.5808              -27.43          28.59          28.42          66.19         -15.21          18.92         -160.9          27.86         -120.4           47.8           82.3
    0.6255              -27.43          28.59          28.43           66.2          -15.2          18.91         -160.8          27.85         -120.4          47.82          82.32
    0.6702              -27.43          28.58          28.44           66.2         -15.19          18.91         -160.7          27.85         -120.3          47.83          82.34
    0.7149              -27.43          28.57          28.45           66.2         -15.19          18.91         -160.6          27.84         -120.2          47.86          82.37
    0.7595              -27.43          28.56          28.46           66.2         -15.18          18.91         -160.4          27.84         -120.1          47.88          82.39
    0.8042              -27.43          28.54          28.48           66.2         -15.17          18.91         -160.3          27.83         -120.0           47.9          82.42
    0.8489              -27.42          28.53          28.49           66.2         -15.15          18.91         -160.2          27.83         -119.9          47.93          82.45
    0.8936              -27.42          28.52          28.51           66.2         -15.14          18.91         -160.0          27.82         -119.8          47.96          82.48
    0.9383              -27.42           28.5          28.53          66.21         -15.13          18.91         -159.8          27.81         -119.7          47.99          82.52
    0.9829              -27.42          28.49          28.55          66.21         -15.11          18.91         -159.6           27.8         -119.6          48.03          82.56
     1.028              -27.42          28.47          28.57          66.21          -15.1          18.91         -159.4          27.79         -119.4          48.07           82.6
     1.072              -27.42          28.45          28.59          66.21         -15.08          18.91         -159.1          27.78         -119.2          48.11          82.65
     1.117              -27.42          28.42          28.62          66.22         -15.06           18.9         -158.9          27.77         -119.0          48.16          82.71
     1.162              -27.42           28.4          28.65          66.22         -15.03           18.9         -158.6          27.76         -118.8          48.21          82.77
